<svg width="320" height="320" viewBox="0 0 320 320" fill="none" xmlns="http://www.w3.org/2000/svg">
<path fill-rule="evenodd" clip-rule="evenodd" d="M0 0C106.667 0 213.333 0 320 0C320 106.667 320 213.333 320 320C213.333 320 106.667 320 0 320C0 213.333 0 106.667 0 0Z" fill="#020204"/>
<path fill-rule="evenodd" clip-rule="evenodd" d="M83 18C60.063 26.2266 41.896 40.5599 28.5 61C24.68 68.303 21.18 75.636 18 83C18 61.3333 18 39.6667 18 18C39.667 18 61.333 18 83 18Z" fill="#FCFCFD"/>
<path fill-rule="evenodd" clip-rule="evenodd" d="M83 18C91.333 18 99.667 18 108 18C108 48 108 78 108 108C78 108 48 108 18 108C18 99.667 18 91.333 18 83C21.18 75.636 24.68 68.303 28.5 61C41.896 40.5599 60.063 26.2266 83 18Z" fill="#01217F"/>
<path fill-rule="evenodd" clip-rule="evenodd" d="M115 18C145 18 175 18 205 18C205 48 205 78 205 108C175 108 145 108 115 108C115 78 115 48 115 18Z" fill="#01207F"/>
<path fill-rule="evenodd" clip-rule="evenodd" d="M236 18C268.217 28.5496 289.883 49.8829 301 82C301.333 83.333 301.667 84.667 302 86C302 93.333 302 100.667 302 108C272 108 242 108 212 108C212 78 212 48 212 18C220 18 228 18 236 18Z" fill="#01217F"/>
<path fill-rule="evenodd" clip-rule="evenodd" d="M236 18C258 18 280 18 302 18C302.331 39.5065 301.997 60.8399 301 82C289.883 49.8829 268.217 28.5496 236 18Z" fill="#FCFCFD"/>
<path fill-rule="evenodd" clip-rule="evenodd" d="M18 115C48 115 78 115 108 115C108 145 108 175 108 205C78 205 48 205 18 205C18 175 18 145 18 115Z" fill="#01207F"/>
<path fill-rule="evenodd" clip-rule="evenodd" d="M115 115C145 115 175 115 205 115C205 145 205 175 205 205C175 205 145 205 115 205C115 175 115 145 115 115Z" fill="#FEFFFE"/>
<path fill-rule="evenodd" clip-rule="evenodd" d="M212 115C242 115 272 115 302 115C302 145 302 175 302 205C272 205 242 205 212 205C212 175 212 145 212 115Z" fill="#FEFFFE"/>
<path fill-rule="evenodd" clip-rule="evenodd" d="M115 212C145 212 175 212 205 212C205 242 205 272 205 302C175 302 145 302 115 302C115 272 115 242 115 212Z" fill="#01207F"/>
<path fill-rule="evenodd" clip-rule="evenodd" d="M83 302C50.163 290.496 28.496 268.163 18 235C18 227.333 18 219.667 18 212C48 212 78 212 108 212C108 242 108 272 108 302C99.667 302 91.333 302 83 302Z" fill="#01217F"/>
<path fill-rule="evenodd" clip-rule="evenodd" d="M18 235C28.496 268.163 50.163 290.496 83 302C61.333 302 39.667 302 18 302C18 279.667 18 257.333 18 235Z" fill="#FCFCFD"/>
<path fill-rule="evenodd" clip-rule="evenodd" d="M302 233C301.871 234.716 301.538 236.383 301 238C290.333 269.333 269.333 290.333 238 301C236.383 301.538 234.716 301.871 233 302C226 302 219 302 212 302C212 272 212 242 212 212C242 212 272 212 302 212C302 219 302 226 302 233Z" fill="#01217F"/>
<path fill-rule="evenodd" clip-rule="evenodd" d="M301 238C301.997 259.16 302.331 280.493 302 302C280.493 302.331 259.16 301.997 238 301C269.333 290.333 290.333 269.333 301 238Z" fill="#FCFCFD"/>
</svg>
